<svg xmlns="http://www.w3.org/2000/svg" viewBox="0 0 834.94 969.38">
    <path d="m660.06 226.35 3.35 28.77 11.29 96H793l-11.16-96-19.33-163.84s-27.16 4.59-80.51 12.78C634.51 62 589.87 36.46 548.44 21.21 505.65 5.58 466.34.74 430.62 0v400.6l33.11 29.4 84.71 75.28 47.63 42.54 113.48 100.83L548.44 753V570H430.62v399.38l117.82-76.27 252.27-163.47 34.23-22.2-13.77-117.08-47.87-42.54-84.34-75L640.84 430l-92.4-82.23v-197c18.73 10.92 36.84 24.69 55.69 41.31l41.17 36.46Z"/>
    <path d="M286.5 150.81V21.21C329.29 5.58 368.6.74 404.32 0v969.38L286.5 893.11 36.09 730.88 0 707.44l10.91-92.77 123.78-45.76-9.3 79.62 48.37 31.38L286.5 753V150.81Z"/>

</svg>