<svg xmlns="http://www.w3.org/2000/svg" viewBox="0 0 900 43"><defs><style>.cls-1{fill:#f0db4f;}.cls-2{fill:#d9c64a;}.cls-3{fill:#c3b245;}.cls-4{fill:#ad9e3f;}.cls-5{fill:#988a3a;}.cls-6{fill:#837735;}.cls-7{fill:#6f652f;}.cls-8{fill:#5b532a;}.cls-9{fill:#484224;}.cls-10{fill:#35311f;}.cls-11{fill:#242119;}.cls-12{fill:#121212;}</style></defs><g id="Слой_2" data-name="Слой 2"><g id="visual"><path class="cls-1" d="M0,0C29.59,3.05,73.1,17.73,106,21.5c17.7,1.2,35.3-2.2,53-3.7,35.55-5.34,70.78,8.37,106,5C282.7,20,300.3,10,318,11.5S353.3,26,371,26.2c45.34-6.78,50.37-29.51,105.2-11,34.44,8.56,70,22.49,105.8,19.6,17.7-1.8,35.3-8.8,53-9.5s35.3,5,53,1.2S723.3,9.3,741,8.2s35.3,9.8,53,16.5C827.19,39,870.74,31,900,22V43H0Z"/><path class="cls-2" d="M0,13C74.45,58.16,79.3.82,159,16.8c35.32,6.18,70.53,2.84,106,4.7,17.7,1.8,35.3,7.2,53,8.8,35.72,6.13,71.08-16.27,105.8-15,17.5,2,34.9,13.4,52.4,18.7,35.23,9,71,2.28,105.8-6.8,17.7-5.5,35.3-13.9,53-16.2,35.28-3.79,70.56,12.16,106,6.7,17.7-2.4,35.3-9,53-12.2,33-5.89,76.64.19,106,2.5V43H0Z"/><path class="cls-3" d="M0,11C15.6,9.66,29.85,7.61,53,8.7c17.7,1,35.3,4.6,53,6.3,35.45,3.73,70.76-2.41,106,4.8,17.7,3.9,35.3,11.5,53,10.5s35.3-10.6,53-12.8,35.3,3.2,53,3.2,35.3-5.4,52.8-4.4,34.9,8.4,52.4,7.9,35.1-8.9,52.8-9.5,35.3,6.3,53,8.5c35.43,4.8,70.72-12.35,106-9.5,17.7,1.6,35.3,9,53,12.6,50.55,9,112-1.07,159-12.3V43H0Z"/><path class="cls-4" d="M0,30C60.2-.35,96.18,18.28,159,26.5c17.7,2.5,35.3,4.5,53,2.3s35.3-8.5,53-8,35.3,7.9,53,8.2,35.3-6.3,53-6.7S406.3,28,423.8,31c35.16,5.21,70,2.29,105.2-2.5,35-4.81,70.36-19.61,106-13.3,44.79,13.5,57.12,22.36,106,10.6,50.27-6.35,110.92-8.34,159-12.8V43H0Z"/><path class="cls-5" d="M0,24c48.44.13,108.23,17.33,159,12,35.41-2.45,70.71-17.4,106-19.7,35.25.7,70.49,9,106,6.4,70.62-5.19,140.54,8.44,211,5.5,35.22-4.92,70.37-15,106-6,17.7,3.8,35.3,10.8,53,13,35.42,4.07,70.73-10,106-9.9,23.2.38,37.33,3.84,53,6.7V43H0Z"/><path class="cls-6" d="M0,16c29.35,5.4,72.91,2.76,106,6,17.7,2.7,35.3,9.3,53,12.5,53.9,11.33,105.08-22.72,159-14.3,34.83,5,70.27,18.7,105.8,17.1,35.11-3.12,69.84-4.64,105.2-5.1,17.7-1.5,35.3-5.9,53-6.4s35.3,2.9,53,4.4c35.34.91,70.72,4.61,106,1.6,17.7-2.5,35.3-9.1,53-11.3s35.3.2,53,.7c23.19.43,37.23-1.05,53-2.2V43H0Z"/><path class="cls-7" d="M0,40c39.37-14.85,62.7-13.38,106-7,35.52,2.85,70.81-7.18,106-10,35.49-3.74,70.74,5.77,106,6.5,35.07-1.25,70.53-11.94,105.8-8,17.5,1.5,34.9,5.5,52.4,7.8,52.91,8.48,106-4.9,158.8-5.3,17.7.7,35.3,4.3,53,4.3s35.3-3.6,53-4.6c50.44,1.48,111-3.43,159,1.3V43H0Z"/><path class="cls-8" d="M0,31c29.41.82,73,.64,106,3,35.36,4.46,70.54,4,106,1.8,17.7-.1,35.3,1.5,53-.6s35.3-8.2,53-8.4,35.3,5.5,53,7,35.3-1.1,52.8-1.3A510.7,510.7,0,0,0,529,29.2c53-2,106,4.5,159,2.8,17.7-1,35.3-4,53-3.2s35.3,5.5,53,5.4,35.3-5.2,53-7c23.18-2.14,37.23-.28,53,.8V43H0Z"/><path class="cls-9" d="M0,38c66.52-7.9,143.62,2.11,212,.8,70.54-.69,141.33.68,211.8-.1A668.12,668.12,0,0,1,529,35.8c35.43-1.18,70.68.67,106,3.5,35.56,2.94,70.81-8.63,106-9.8,17.7.2,35.3,4.8,53,7.3,33,4.77,76.56,2.09,106,1.2v5H0Z"/><path class="cls-10" d="M0,37c29.42-.9,73-6.21,106-7.2,35.34-.38,70.65,7,106,5.9,17.7-.7,35.3-3.7,53-3.7s35.3,3,53,3.2,35.3-2.5,53-2.4,35.3,3.2,52.8,3.5c35.29-1.9,69.94-1.6,105.2,2.4,17.7.6,35.3-1,53-1,35.34.43,70.62,5.29,106,1.8,35.39-5.29,70.51-5.35,106-1.3,33.07.52,76.62-1,106,1.8v3H0Z"/><path class="cls-11" d="M0,40c47.89-8.67,108.53-6.45,159-2.3,35.39,2.74,70.66.24,106-1.5,35.37.4,70.66-1.7,106-1.9,17.7.7,35.3,3.7,52.8,3.7s34.9-3,52.4-3.5c35.08.15,70.56,4.6,105.8,2.2,53.07-3.44,106,2.82,159-2C791.44,36.55,852,36,900,31V43H0Z"/><path class="cls-12" d="M0,40c84.85-8.13,178.71,2.41,265-.8,35.36.16,70.66-1.64,106-2.2,53,1.47,105.18,5.4,158-1.2,35.46-3.1,70.71,1,106,3.9,35.39,2.18,70.69-2.12,106-3.7,50.48-1.65,111,6.3,159-1v8H0Z"/></g></g></svg>